<?xml version="1.0" encoding="UTF-8" standalone="no"?>
<!-- Created with Inkscape (http://www.inkscape.org/) -->

<svg
   version="1.1"
   id="svg1"
   width="975"
   height="629"
   viewBox="0 0 975 629"
   xmlns="http://www.w3.org/2000/svg"
   xmlns:svg="http://www.w3.org/2000/svg">
  <defs
     id="defs1" />
  <g
     id="g1">
    <path
       style="fill:#000000"
       d="M 0,314.5 V 0 H 487.5 975 V 314.5 629 H 487.5 0 Z M 717,481 V 448 H 705.5 694 v 22 22 H 519 344 V 316.5 141 h 175 175 v 22 22 H 705.5 717 V 152 119 H 519.5 322 V 316.5 514 H 519.5 717 Z M 592.76778,413.75 592.5,389.5 l -59,-0.5 -59,-0.5 -0.28276,-21.5 c -0.15551,-11.825 -0.0357,-22.50734 0.26618,-23.73854 l 0.54893,-2.23854 39.73383,-0.26146 L 554.5,340.5 v -24 -24 l -39.73382,-0.26146 -39.73383,-0.26146 -0.54893,-2.23854 C 474.18151,288.50734 474.06173,277.825 474.21724,266 l 0.28276,-21.5 58.73295,-0.25799 58.73295,-0.25798 0.54939,-2.24202 C 592.81745,240.50891 592.93762,229.375 592.78234,217 L 592.5,194.5 H 509 425.5 L 425.24602,316.25 424.99203,438 h 84.02177 84.02176 z"
       id="path1" />
    <path
       style="fill:#374151;fill-opacity:1;stroke-width:1.08657"
       d="M 0,314.56222 V 0.54328535 H 487.32696 974.65392 V 314.56222 628.58115 H 487.32696 0 Z m 717.13666,166.24532 v -33.6837 h -11.95227 -11.95228 v 22.2747 22.2747 H 518.83751 344.44291 V 316.73536 141.79748 h 174.3946 174.3946 v 21.73141 21.73141 h 11.95228 11.95227 V 152.1199 118.97949 H 519.3808 321.62493 V 316.73536 514.49123 H 519.3808 717.13666 Z m -124.1203,-67.09574 -0.29204,-24.71949 -58.94646,-0.281 -58.94646,-0.28099 V 365.0784 341.72649 l 19.82991,-0.003 c 10.90646,-0.002 28.99786,-0.32347 40.20312,-0.71508 l 20.3732,-0.71201 v -24.26266 -24.26265 l -39.93147,-0.28503 -39.93148,-0.28503 -0.29322,-23.08026 -0.29323,-23.08026 58.96805,-0.28101 58.96804,-0.28101 0.29167,-25.26277 0.29167,-25.26277 H 509.0784 424.84915 v 122.2392 122.23921 h 84.22962 84.22963 z"
       id="path2" />
    <path
       style="fill:#f2f2f2;fill-opacity:1;stroke-width:1.08657"
       d="M 425.93572,316.19207 V 195.03944 h 83.14344 83.14345 l -0.29243,24.1762 -0.29243,24.1762 -58.96723,0.28101 -58.96722,0.28101 0.29241,24.16683 0.2924,24.16683 39.93148,0.28503 39.93147,0.28503 v 23.34788 23.34788 l -4.07464,0.15071 c -2.24105,0.0829 -20.21022,0.4496 -39.93147,0.81493 l -35.85684,0.66422 -0.29243,24.1762 -0.29243,24.1762 h 59.23889 59.23889 v 23.90455 23.90456 h -83.12266 -83.12265 z"
       id="path3" />
    <path
       style="fill:#f2f2f2;fill-opacity:1;stroke-width:1.08657"
       d="M 322.7115,316.19207 V 118.97949 h 196.6693 196.66929 v 32.59712 32.59712 h -10.8657 -10.86571 V 162.44232 140.71091 H 518.83751 343.35634 v 176.02445 176.02445 h 175.48117 175.48117 v -22.2747 -22.27469 h 10.86571 10.8657 v 32.59712 32.59712 H 519.3808 322.7115 Z"
       id="path4" />
  </g>
</svg>
